<svg width="36" height="36" viewBox="0 0 36 36" fill="none" xmlns="http://www.w3.org/2000/svg">
<g clip-path="url(#clip0_103_2145)">
<path d="M31.5884 17.0306L18.9652 4.4058C18.4164 3.86473 17.5627 3.86473 17.0138 4.4058C16.465 4.94686 16.465 5.78851 17.0138 6.32958L27.2587 16.6098H1.34159C0.609814 16.6098 0 17.2109 0 17.9324C0 18.6538 0.609814 19.3151 1.34159 19.3151H27.3807L17.0138 29.7155C16.465 30.2566 16.465 31.0982 17.0138 31.6393C17.2577 31.8798 17.6236 32 17.9895 32C18.3554 32 18.7213 31.8798 18.9652 31.5792L31.5884 18.9544C32.1372 18.4133 32.1372 17.5717 31.5884 17.0306Z" fill="#0032D7" stroke="#0032D7"/>
</g>
<defs>
<clipPath id="clip0_103_2145">
<rect width="35" height="35" fill="white" transform="translate(0.5 0.5)"/>
</clipPath>
</defs>
</svg>
