<svg width="22" height="25" viewBox="0 0 22 25" fill="none" xmlns="http://www.w3.org/2000/svg">
<path d="M10.7934 10.8313C13.5916 10.8313 15.8603 8.63813 15.8603 5.91563C15.8603 3.19313 13.5916 1 10.7934 1C7.99531 1 5.72656 3.19313 5.72656 5.91563C5.72656 8.63813 7.99531 10.8313 10.7934 10.8313ZM10.7934 2.73938C12.6463 2.73938 14.1588 4.17625 14.1588 5.95344C14.1588 7.73063 12.6463 9.1675 10.7934 9.1675C8.94062 9.1675 7.42813 7.73063 7.42813 5.95344C7.42813 4.17625 8.94062 2.73938 10.7934 2.73938Z" fill="#202020" stroke="#202020"/>
<path d="M13.2513 12.5327H8.33563C4.28969 12.5327 1 15.8602 1 19.9062V23.0446C1 23.4983 1.37812 23.9143 1.86969 23.9143C2.36125 23.9143 2.73938 23.5362 2.73938 23.0446V19.9062C2.73938 16.8055 5.27281 14.2343 8.41125 14.2343H13.2891C16.3897 14.2343 18.9609 16.7677 18.9609 19.9062V23.0446C18.9609 23.4983 19.3391 23.9143 19.8306 23.9143C20.3222 23.9143 20.7003 23.5362 20.7003 23.0446V19.9062C20.5869 15.8602 17.2972 12.5327 13.2513 12.5327Z" fill="#202020" stroke="#202020"/>
</svg>
